<svg version="1.1" id="Layer_1" xmlns="http://www.w3.org/2000/svg" xmlns:xlink="http://www.w3.org/1999/xlink" x="0px" y="0px"
	 width="100%" viewBox="0 0 600 600" enable-background="new 0 0 600 600" xml:space="preserve">
<path fill="#4C6971" opacity="1.000000" stroke="none" 
	d="
M601.000000,234.000000 
	C601.000000,356.666656 601.000000,478.833344 601.000000,601.000000 
	C401.000000,601.000000 201.000000,601.000000 1.000000,601.000000 
	C1.000000,401.000000 1.000000,201.000000 1.000000,1.000000 
	C201.000000,1.000000 401.000000,1.000000 601.000000,1.000000 
	C601.000000,78.500000 601.000000,156.000000 601.000000,234.000000 
M445.879150,134.550262 
	C445.663605,134.227921 445.394684,134.174545 444.429535,134.303085 
	C444.233459,134.211899 444.037354,134.120712 443.804016,133.568939 
	C443.643707,133.238022 443.385193,133.117325 442.273987,133.200272 
	C441.523438,133.226730 440.772919,133.253189 439.411530,133.056686 
	C438.615112,132.746399 437.818665,132.436127 436.218597,132.070374 
	C434.983551,131.719849 433.748535,131.369324 432.759583,130.225616 
	C432.234039,127.156654 431.708466,124.087692 431.226013,120.227745 
	C428.806641,115.181107 426.387299,110.134476 423.798004,104.411987 
	C420.516876,101.017662 417.606750,97.131126 413.882812,94.324287 
	C403.996368,86.872597 392.284760,83.221481 380.502625,80.250854 
	C370.135986,77.637108 359.511780,76.044830 348.941162,73.284325 
	C347.609985,70.918724 346.278809,68.553116 344.355469,65.847656 
	C342.916168,64.538544 341.476868,63.229427 339.748871,61.355129 
	C338.828674,60.911243 337.908508,60.467358 336.567841,59.426903 
	C335.666748,59.024132 334.796722,58.519695 333.859985,58.233654 
	C315.929962,52.758533 297.612427,53.568699 279.343140,55.414497 
	C274.460632,55.907795 269.783173,58.431023 264.378235,60.075985 
	C263.571198,60.690739 262.764130,61.305492 261.280304,62.051044 
	C259.475830,64.027885 257.671326,66.004738 255.283020,68.322357 
	C254.489471,70.192116 253.695923,72.061874 252.040863,74.109772 
	C233.276337,75.635857 215.000183,79.556778 197.572540,86.622635 
	C188.382965,90.348450 179.541733,95.142296 173.429810,104.386543 
	C168.187958,112.112259 165.017029,120.499756 165.086502,130.596558 
	C165.022873,131.019714 164.959229,131.442886 164.134918,131.973816 
	C161.795853,132.784973 159.456802,133.596146 156.488907,134.300491 
	C155.313141,135.167389 154.137375,136.034286 152.308411,137.057419 
	C150.892715,138.380417 149.477036,139.703415 147.460373,141.369080 
	C145.991058,144.458344 143.463593,147.474411 143.243958,150.650101 
	C142.479309,161.706696 141.807617,172.869507 142.601532,183.883743 
	C142.907990,188.135193 147.231247,192.097107 149.980423,196.748260 
	C150.641983,197.503510 151.303543,198.258759 152.351364,199.595428 
	C154.879227,200.544235 157.407074,201.493042 160.561874,202.938492 
	C162.069656,203.202820 163.577438,203.467148 165.213196,204.589355 
	C165.436127,206.742813 165.659042,208.896271 166.004532,211.863098 
	C167.436966,216.258362 168.869400,220.653641 170.247269,225.502075 
	C170.425339,225.810272 170.687332,225.922318 171.237396,225.940704 
	C171.237396,225.940704 171.458664,225.884003 171.595581,226.544617 
	C176.151520,234.488251 182.090286,240.894775 191.417862,244.549561 
	C192.679535,245.294601 193.854446,246.322159 195.216461,246.740494 
	C207.375305,250.475067 219.464127,254.512039 231.787384,257.609253 
	C239.342972,259.508179 247.272690,259.918427 254.993637,261.688385 
	C254.998993,262.149902 255.004349,262.611389 254.227051,263.155701 
	C243.384033,267.397369 232.353470,271.227417 221.774200,276.047882 
	C216.176132,278.598663 211.363068,282.872284 205.253601,286.211426 
	C200.143280,286.743225 195.032959,287.275055 189.201996,287.989899 
	C185.780685,289.605652 182.359375,291.221405 178.321091,293.148376 
	C175.525360,295.377808 172.729630,297.607208 169.344757,300.165894 
	C166.215118,303.732361 163.085480,307.298828 159.353180,311.204010 
	C156.539597,315.785309 153.726013,320.366577 150.331863,325.313751 
	C146.887161,332.208923 143.442459,339.104095 139.416016,346.427948 
	C136.645752,354.621307 133.875488,362.814636 130.471237,371.439178 
	C128.941666,377.144989 127.314095,382.826752 125.904167,388.561951 
	C123.437317,398.596527 120.115250,408.554779 121.223473,419.091278 
	C122.178864,428.174744 124.087471,436.978760 132.268295,443.625641 
	C135.162857,445.093048 138.057419,446.560455 141.447678,448.619965 
	C144.961380,448.691711 148.475067,448.763458 152.737885,448.924805 
	C155.169800,447.984192 157.601715,447.043579 160.727753,445.967102 
	C164.524185,442.327057 168.320602,438.687012 172.677979,434.640717 
	C174.869324,429.574677 177.714310,424.680176 179.099396,419.402496 
	C181.196777,411.410767 182.278259,403.152435 184.199829,394.316284 
	C185.806290,387.082581 187.374222,379.839722 189.085388,372.630890 
	C189.238037,371.987793 190.320816,371.565460 191.157883,371.515015 
	C191.222778,371.672028 191.287659,371.829071 191.159836,372.788208 
	C191.813950,376.169983 192.468079,379.551758 192.979828,383.696472 
	C193.356995,385.147247 193.734177,386.598022 194.093033,388.825714 
	C196.120071,395.546539 198.147110,402.267365 200.308075,409.700928 
	C203.061035,415.985870 205.814011,422.270844 208.803787,429.203552 
	C213.186523,435.841736 217.569275,442.479919 222.253952,449.717560 
	C228.159637,455.828461 234.065323,461.939331 240.369522,468.594299 
	C244.231354,471.103668 248.093201,473.613037 252.389008,476.650909 
	C286.407074,495.087341 319.984283,494.997925 353.751862,474.049835 
	C362.103088,466.360504 370.454346,458.671204 379.148895,450.383392 
	C383.111053,444.292816 387.073212,438.202271 391.669006,431.793030 
	C394.795654,424.561584 397.922302,417.330139 401.661102,409.681091 
	C403.695435,402.483459 405.729767,395.285858 408.129486,387.395569 
	C408.387115,385.914703 408.644775,384.433868 409.018250,382.166138 
	C409.684601,378.456024 410.350952,374.745911 411.624115,370.828491 
	C412.761261,374.259155 414.207886,377.621918 414.978485,381.133057 
	C417.450012,392.394135 419.671509,403.710083 422.024658,415.804565 
	C425.348145,423.206787 428.671600,430.609039 432.299652,438.606110 
	C435.517853,441.091156 438.736053,443.576202 441.976929,446.014893 
	C441.976929,446.014893 441.928345,446.030792 442.108124,446.485565 
	C442.108124,446.485565 442.479431,446.803619 442.479431,446.803619 
	C442.479431,446.803619 442.965210,446.748749 443.676575,447.073547 
	C447.780029,447.705719 451.883484,448.337921 456.746155,448.943939 
	C457.500061,448.874054 458.253967,448.804169 459.720581,448.811279 
	C461.810944,447.865753 463.901276,446.920227 466.674652,445.840729 
	C469.684937,442.702911 473.736298,440.046814 475.462952,436.315125 
	C478.090118,430.637054 480.049438,424.298889 480.610779,418.089050 
	C481.788208,405.064362 477.327881,392.858856 473.342072,380.667480 
	C470.771729,372.805542 468.450806,364.862061 465.940948,356.197418 
	C463.998718,352.112183 462.056488,348.026947 460.030243,343.146240 
	C457.606079,338.102631 455.181915,333.059021 452.832092,327.303284 
	C449.899475,322.863037 446.966827,318.422760 443.897614,313.294647 
	C440.960236,309.848877 438.022827,306.403107 434.793396,302.351166 
	C430.882294,299.222046 426.971191,296.092896 422.669312,292.380096 
	C419.119354,290.843445 415.569397,289.306824 411.516357,287.188721 
	C406.317627,286.867889 401.118866,286.547028 395.214691,286.118042 
	C391.802216,283.612366 388.629272,280.652985 384.926147,278.697815 
	C377.770020,274.919464 370.314880,271.707458 362.341522,267.890137 
	C357.648224,266.527222 352.954956,265.164337 348.105560,263.219940 
	C347.798248,262.495483 347.490936,261.771027 347.880646,260.682343 
	C360.229004,258.089355 372.684418,255.908783 384.884094,252.742889 
	C391.781677,250.952911 398.259064,247.543610 405.638000,244.734482 
	C414.059143,241.350433 420.872345,236.144394 425.496613,227.457947 
	C429.487061,222.688522 431.136871,217.112778 431.553162,210.258926 
	C432.025055,208.500015 432.496979,206.741089 433.627228,204.988098 
	C434.769562,204.391678 435.911926,203.795258 437.742249,203.304474 
	C438.434631,203.288269 439.127014,203.272064 439.886230,203.226501 
	C439.886230,203.226501 439.829529,203.180542 440.057068,203.569809 
	C440.333923,203.367172 440.610748,203.164520 441.626251,202.765823 
	C443.506287,201.909760 445.386292,201.053680 447.607910,200.169907 
	C447.840454,200.107162 448.020386,199.973557 448.887573,199.759018 
	C450.012970,198.563400 451.138367,197.367783 452.865509,195.865799 
	C457.372620,192.207764 459.470764,187.210831 459.712311,181.669571 
	C460.067200,173.527924 459.715942,165.358063 459.900482,157.205551 
	C460.043365,150.892181 457.938934,145.583694 453.582825,140.398651 
	C452.058289,139.257278 450.533752,138.115906 448.753265,136.405640 
	C447.833923,135.941360 446.914581,135.477097 446.054810,135.030441 
	C446.054810,135.030441 446.068237,134.969788 445.879150,134.550262 
z"/>
<path fill="#E3E8EE" opacity="1.000000" stroke="none" 
	d="
M206.195618,286.368134 
	C211.363068,282.872284 216.176132,278.598663 221.774200,276.047882 
	C232.353470,271.227417 243.384033,267.397369 254.596481,263.528564 
	C255.008408,265.284607 255.050903,266.667755 255.066956,268.464478 
	C255.078323,270.267120 255.116119,271.656219 255.146301,273.397278 
	C255.926300,275.520508 256.713898,277.291718 257.609436,279.408203 
	C259.120056,281.509491 260.522766,283.265564 262.099365,285.311401 
	C265.061279,287.433502 267.849304,289.265808 270.916992,291.342957 
	C278.114716,293.625885 284.915100,296.647278 291.975891,297.491821 
	C305.540619,299.114227 319.018829,298.106781 331.677124,291.034424 
	C334.520782,289.013306 337.030487,287.053528 339.842560,285.006104 
	C341.470886,283.288513 342.796844,281.658569 344.389099,279.832458 
	C345.107330,278.428436 345.559174,277.220612 346.237915,275.694275 
	C346.611694,273.248138 346.758606,271.120453 346.927917,268.593536 
	C347.387390,266.730011 347.824524,265.265717 348.261658,263.801453 
	C352.954956,265.164337 357.648224,266.527222 362.749756,268.399170 
	C373.461273,285.131897 379.657074,302.840240 382.216248,321.846039 
	C382.894897,326.886078 383.398773,331.949677 383.984192,337.390656 
	C383.653290,339.514862 383.321106,341.250854 382.605103,343.066040 
	C377.939026,343.259766 373.656982,343.467010 369.374573,343.473358 
	C345.592957,343.508636 321.811066,343.432892 298.029663,343.517975 
	C278.913605,343.586365 259.796692,344.032654 240.683151,343.893890 
	C233.112396,343.838928 225.549805,342.656097 218.009293,341.614990 
	C218.445923,339.985260 218.693863,338.643250 219.293030,337.482574 
	C224.869751,326.678925 232.347992,317.407410 242.029404,310.020630 
	C247.447021,305.887024 250.569000,300.775452 249.964264,293.781921 
	C249.260590,285.643799 241.373749,280.115875 234.725967,283.938019 
	C228.761093,287.367523 223.114029,291.797394 218.343781,296.762970 
	C208.706970,306.794434 203.891617,319.335236 201.510284,333.016174 
	C196.741623,333.330048 192.428421,333.649017 188.086929,333.509216 
	C189.387085,324.410126 190.715546,315.769745 192.295700,306.890228 
	C197.096802,299.890106 201.646210,293.129120 206.195618,286.368134 
z"/>
<path fill="#E3E8EE" opacity="1.000000" stroke="none" 
	d="
M349.001343,74.001442 
	C359.511780,76.044830 370.135986,77.637108 380.502625,80.250854 
	C392.284760,83.221481 403.996368,86.872597 413.882812,94.324287 
	C417.606750,97.131126 420.516876,101.017662 423.824646,105.133865 
	C422.203674,106.568932 420.569916,107.858658 418.906128,107.898643 
	C410.251404,108.106628 401.587311,107.889191 392.929810,108.026657 
	C384.125854,108.166451 375.325775,108.546776 366.436462,108.899193 
	C351.731018,107.320770 337.149628,105.014572 322.484985,104.191521 
	C307.745575,103.364273 292.922150,103.911079 278.137848,104.070778 
	C272.879761,104.127571 267.606934,104.634468 262.378937,105.256294 
	C253.509750,106.311211 244.670792,107.620399 235.297028,108.688110 
	C230.883942,108.357018 226.971146,108.350632 223.108566,107.906891 
	C219.711349,107.516624 216.370346,106.636925 213.262619,105.726715 
	C217.937042,104.058601 222.358536,102.652985 226.768097,101.210892 
	C230.616791,99.952232 232.644745,97.437386 231.769562,93.269424 
	C230.962234,89.424530 228.485291,87.617958 224.529648,88.023323 
	C223.211227,88.158424 221.883743,88.327217 220.597458,88.635277 
	C206.972641,91.898415 194.346985,97.167274 183.633667,106.971634 
	C180.496796,105.019730 175.978638,108.849770 174.070618,104.141533 
	C179.541733,95.142296 188.382965,90.348450 197.572540,86.622635 
	C215.000183,79.556778 233.276337,75.635857 252.916489,74.031631 
	C265.676239,73.300491 277.565460,72.034119 289.443390,72.132339 
	C309.299805,72.296555 329.149078,73.332458 349.001343,74.001442 
z"/>
<path fill="#BFC3CC" opacity="1.000000" stroke="none" 
	d="
M221.952011,449.118103 
	C217.569275,442.479919 213.186523,435.841736 209.052826,428.590424 
	C211.566956,427.651550 213.831650,427.044800 216.097168,427.041687 
	C257.413879,426.984589 298.732147,426.826324 340.046082,427.171021 
	C346.930420,427.228455 351.316284,424.204407 355.460968,419.736664 
	C356.926117,418.157318 357.939514,416.137848 359.482300,414.655670 
	C363.399017,410.892700 367.570709,408.087280 373.658508,409.258759 
	C377.456299,409.989532 381.514496,409.285858 385.451019,409.396698 
	C390.652802,409.543213 395.849854,409.856903 401.048950,410.098724 
	C397.922302,417.330139 394.795654,424.561584 391.307770,431.592346 
	C390.373535,430.657379 389.848816,429.328979 389.220276,429.277863 
	C379.699524,428.504120 370.132385,427.024567 360.789368,430.600555 
	C359.747742,430.999207 357.590637,431.089569 357.378815,430.644043 
	C355.414215,426.511505 351.921326,428.532471 350.230194,429.693329 
	C342.275421,435.153870 334.706573,441.176636 326.654633,447.019348 
	C324.872833,447.693268 323.436401,448.346619 321.657227,448.776978 
	C309.302612,448.176605 297.292999,447.672211 285.278259,447.467438 
	C277.548828,447.335693 269.810760,447.785278 262.078613,447.722778 
	C250.731400,447.631104 239.386185,447.210419 228.039673,447.190125 
	C226.011612,447.186493 223.981293,448.443298 221.952011,449.118103 
z"/>
<path fill="#D2D6DE" opacity="1.000000" stroke="none" 
	d="
M193.122192,382.933533 
	C192.468079,379.551758 191.813950,376.169983 191.693726,372.388184 
	C203.615067,372.122253 215.002228,372.319366 226.390045,372.369598 
	C234.794113,372.406647 243.198914,372.221558 251.603592,372.191315 
	C260.154327,372.160553 268.705322,372.195923 277.256226,372.206573 
	C285.499084,372.216827 293.741913,372.240509 301.984772,372.243500 
	C310.371277,372.246552 318.757782,372.228394 327.144287,372.225250 
	C335.387115,372.222137 343.630096,372.255219 351.872772,372.219513 
	C360.917755,372.180328 369.962433,372.080627 378.979797,372.399384 
	C378.349518,375.206085 377.888763,377.667053 377.118774,380.027161 
	C374.089233,389.312866 373.084930,389.999847 363.327911,389.999908 
	C321.114990,390.000244 278.901825,389.944824 236.689758,390.136108 
	C234.118027,390.147736 231.555145,392.114319 228.581894,393.117096 
	C216.491165,389.686493 204.806686,386.310028 193.122192,382.933533 
z"/>
<path fill="#D7DBE3" opacity="1.000000" stroke="none" 
	d="
M379.007263,372.007324 
	C369.962433,372.080627 360.917755,372.180328 351.872772,372.219513 
	C343.630096,372.255219 335.387115,372.222137 327.144287,372.225250 
	C318.757782,372.228394 310.371277,372.246552 301.984772,372.243500 
	C293.741913,372.240509 285.499084,372.216827 277.256226,372.206573 
	C268.705322,372.195923 260.154327,372.160553 251.603592,372.191315 
	C243.198914,372.221558 234.794113,372.406647 226.390045,372.369598 
	C215.002228,372.319366 203.615067,372.122253 191.790085,371.987122 
	C191.287659,371.829071 191.222778,371.672028 191.072662,370.841583 
	C190.361984,365.440186 189.736511,360.712250 189.566132,355.989258 
	C194.665176,356.000702 199.309128,356.007202 204.109711,356.320801 
	C205.866318,358.253906 207.466293,359.879944 209.066269,361.505951 
	C210.381699,360.005371 211.697128,358.504791 213.399445,357.003601 
	C269.855927,357.000458 325.925507,356.997864 381.996399,357.424530 
	C381.328979,362.565521 380.660217,367.277283 379.745361,371.992859 
	C379.499329,371.996735 379.007263,372.007324 379.007263,372.007324 
z"/>
<path fill="#CBCFD8" opacity="1.000000" stroke="none" 
	d="
M378.979797,372.399384 
	C379.007263,372.007324 379.499329,371.996735 380.160309,371.996399 
	C390.851715,371.470276 401.070892,373.736786 410.914062,370.232391 
	C410.969940,370.678955 410.993622,370.857391 411.017303,371.035797 
	C410.350952,374.745911 409.684601,378.456024 408.600098,382.647736 
	C391.415192,387.732025 374.705750,392.561401 357.853485,396.826263 
	C351.072998,398.542175 350.930420,397.978729 351.060730,405.389130 
	C351.528961,409.754578 349.620728,411.597778 345.813690,411.930511 
	C342.536560,412.216949 339.271332,412.640198 335.813843,412.694489 
	C333.932983,411.264130 332.249664,409.184937 330.543640,409.166168 
	C309.970093,408.939514 289.393127,409.036682 268.817169,408.993195 
	C266.045532,408.987366 264.857452,410.231476 264.559265,412.925720 
	C261.859772,412.626953 259.587372,412.086792 257.306366,412.047607 
	C252.522491,411.965454 250.365158,409.751129 250.930634,404.544830 
	C251.833496,399.209961 249.499176,397.504089 244.815643,396.867615 
	C239.471054,396.141357 234.258224,394.445648 228.988129,393.171234 
	C231.555145,392.114319 234.118027,390.147736 236.689758,390.136108 
	C278.901825,389.944824 321.114990,390.000244 363.327911,389.999908 
	C373.084930,389.999847 374.089233,389.312866 377.118774,380.027161 
	C377.888763,377.667053 378.349518,375.206085 378.979797,372.399384 
z"/>
<path fill="#A3A8B3" opacity="1.000000" stroke="none" 
	d="
M255.034409,260.997192 
	C247.272690,259.918427 239.342972,259.508179 231.787384,257.609253 
	C219.464127,254.512039 207.375305,250.475067 195.216461,246.740494 
	C193.854446,246.322159 192.679535,245.294601 191.622742,244.268082 
	C194.546204,244.483887 197.265900,245.405685 199.983124,245.398499 
	C207.993057,245.377289 216.006073,245.068634 224.007446,244.665421 
	C225.377563,244.596390 226.696365,243.509003 228.412903,242.927505 
	C229.533493,243.027908 230.280045,243.092865 231.123291,243.243317 
	C231.219971,243.328812 231.576065,243.424423 231.576065,243.424423 
	C231.576065,243.424423 231.933456,243.296188 232.307098,243.418121 
	C280.645874,251.709259 328.531403,251.599686 376.757568,242.271988 
	C383.858826,242.923660 390.531525,243.439743 397.199524,244.010345 
	C399.780365,244.231216 402.350647,244.575577 404.925720,244.863678 
	C398.259064,247.543610 391.781677,250.952911 384.884094,252.742889 
	C372.684418,255.908783 360.229004,258.089355 347.176697,260.697418 
	C341.538910,260.910828 336.604858,261.103729 331.671265,261.308624 
	C319.228851,261.825287 306.784363,262.803864 294.344940,262.742157 
	C281.238892,262.677185 268.137726,261.620544 255.034409,260.997192 
z"/>
<path fill="#C5C9D2" opacity="1.000000" stroke="none" 
	d="
M401.355042,409.889893 
	C395.849854,409.856903 390.652802,409.543213 385.451019,409.396698 
	C381.514496,409.285858 377.456299,409.989532 373.658508,409.258759 
	C367.570709,408.087280 363.399017,410.892700 359.482300,414.655670 
	C357.939514,416.137848 356.926117,418.157318 355.460968,419.736664 
	C351.316284,424.204407 346.930420,427.228455 340.046082,427.171021 
	C298.732147,426.826324 257.413879,426.984589 216.097168,427.041687 
	C213.831650,427.044800 211.566956,427.651550 208.934418,428.266541 
	C205.814011,422.270844 203.061035,415.985870 200.620987,409.378967 
	C205.443588,409.634644 210.313751,411.571777 214.384094,410.492493 
	C221.699509,408.552795 228.685196,408.967163 235.919815,409.817627 
	C239.658508,410.257141 243.839539,412.089081 246.926422,408.408478 
	C246.340836,413.090607 248.001678,415.194397 252.452042,415.682159 
	C263.975464,416.945160 275.429474,419.262390 286.975067,419.808350 
	C306.547729,420.733887 326.124664,420.013214 345.462280,416.178619 
	C355.961273,414.096710 355.044403,416.658325 354.848572,404.672546 
	C356.081604,403.245331 357.224304,401.503082 358.726501,401.099792 
	C364.166595,399.639130 369.792572,398.868805 375.228851,397.396423 
	C386.115662,394.447784 396.923615,391.207886 407.764099,388.088196 
	C405.729767,395.285858 403.695435,402.483459 401.355042,409.889893 
z"/>
<path fill="#B1B5C0" opacity="1.000000" stroke="none" 
	d="
M322.000000,449.000000 
	C323.436401,448.346619 324.872833,447.693268 326.904236,447.271240 
	C329.751343,448.341370 331.980377,449.832214 334.259399,449.913116 
	C349.102081,450.440002 363.955627,450.660889 378.805603,450.981903 
	C370.454346,458.671204 362.103088,466.360504 353.252014,473.776825 
	C350.766907,473.002716 348.777161,472.052429 346.797119,472.072266 
	C332.075958,472.219757 317.356842,472.773468 302.636932,472.778473 
	C288.232910,472.783356 273.827118,472.089478 259.426178,472.207031 
	C256.925293,472.227478 254.444901,474.753601 251.955048,476.122375 
	C248.093201,473.613037 244.231354,471.103668 240.502136,468.091095 
	C242.436951,467.403748 244.375565,466.695282 246.018585,467.122864 
	C254.921387,469.439423 263.768799,468.924835 272.599731,467.007874 
	C281.468323,465.082703 290.392883,463.307068 299.105774,460.812286 
	C304.664520,459.220612 309.982361,456.645081 315.210907,454.104584 
	C317.710510,452.889954 319.751373,450.731140 322.000000,449.000000 
z"/>
<path fill="#DCE0E8" opacity="1.000000" stroke="none" 
	d="
M383.982910,337.002441 
	C383.398773,331.949677 382.894897,326.886078 382.216248,321.846039 
	C379.657074,302.840240 373.461273,285.131897 363.070831,268.584473 
	C370.314880,271.707458 377.770020,274.919464 384.926147,278.697815 
	C388.629272,280.652985 391.802216,283.612366 395.642639,286.499969 
	C401.317413,295.002655 406.564209,303.123413 411.818542,311.663269 
	C412.525085,320.382507 413.224091,328.682678 413.462738,336.987762 
	C403.329224,336.995941 393.656067,336.999176 383.982910,337.002441 
z"/>
<path fill="#B8BCC6" opacity="1.000000" stroke="none" 
	d="
M321.657227,448.777008 
	C319.751373,450.731140 317.710510,452.889954 315.210907,454.104584 
	C309.982361,456.645081 304.664520,459.220612 299.105774,460.812286 
	C290.392883,463.307068 281.468323,465.082703 272.599731,467.007874 
	C263.768799,468.924835 254.921387,469.439423 246.018585,467.122864 
	C244.375565,466.695282 242.436951,467.403748 240.302887,467.819061 
	C234.065323,461.939331 228.159637,455.828461 222.102982,449.417847 
	C223.981293,448.443298 226.011612,447.186493 228.039673,447.190125 
	C239.386185,447.210419 250.731400,447.631104 262.078613,447.722778 
	C269.810760,447.785278 277.548828,447.335693 285.278259,447.467438 
	C297.292999,447.672211 309.302612,448.176605 321.657227,448.777008 
z"/>
<path fill="#BFC3CC" opacity="1.000000" stroke="none" 
	d="
M159.955856,310.865295 
	C163.085480,307.298828 166.215118,303.732361 169.771545,300.327148 
	C170.481003,306.973267 170.934692,313.456848 170.984085,319.943542 
	C171.015198,324.027893 170.117294,328.123932 170.205704,332.202362 
	C170.387558,340.590973 171.135727,348.967590 171.304077,357.356110 
	C171.457199,364.985626 171.215134,372.626007 171.022324,380.258423 
	C170.914948,384.508911 170.408783,388.750702 170.341522,393.000519 
	C170.257034,398.337158 170.458145,403.677887 170.494354,409.017090 
	C170.508820,411.150604 170.343582,413.286041 170.380936,415.418488 
	C170.449158,419.315247 170.467834,423.221497 170.776138,427.102417 
	C170.987991,429.769257 171.654007,432.400055 172.117020,435.046967 
	C168.320602,438.687012 164.524185,442.327057 160.371796,445.559265 
	C159.995834,400.389374 159.975845,355.627350 159.955856,310.865295 
z"/>
<path fill="#B8BCC6" opacity="1.000000" stroke="none" 
	d="
M172.397491,434.843842 
	C171.654007,432.400055 170.987991,429.769257 170.776138,427.102417 
	C170.467834,423.221497 170.449158,419.315247 170.380936,415.418488 
	C170.343582,413.286041 170.508820,411.150604 170.494354,409.017090 
	C170.458145,403.677887 170.257034,398.337158 170.341522,393.000519 
	C170.408783,388.750702 170.914948,384.508911 171.022324,380.258423 
	C171.215134,372.626007 171.457199,364.985626 171.304077,357.356110 
	C171.135727,348.967590 170.387558,340.590973 170.205704,332.202362 
	C170.117294,328.123932 171.015198,324.027893 170.984085,319.943542 
	C170.934692,313.456848 170.481003,306.973267 170.066116,300.162476 
	C172.729630,297.607208 175.525360,295.377808 178.818451,293.321747 
	C179.835159,295.858215 180.716202,298.207336 180.808243,300.586975 
	C181.126526,308.814636 181.231354,317.052399 181.300537,325.287323 
	C181.366776,333.170471 181.261414,341.054932 181.279022,348.938690 
	C181.297455,357.185547 181.391983,365.432190 181.414597,373.679047 
	C181.425735,377.739136 181.025986,381.831055 181.417542,385.849579 
	C181.719604,388.949829 182.965256,391.958160 183.791367,395.007355 
	C182.278259,403.152435 181.196777,411.410767 179.099396,419.402496 
	C177.714310,424.680176 174.869324,429.574677 172.397491,434.843842 
z"/>
<path fill="#C5C9D2" opacity="1.000000" stroke="none" 
	d="
M431.995056,438.011292 
	C428.671600,430.609039 425.348145,423.206787 422.235291,415.059174 
	C422.629547,413.176453 422.972839,412.039215 422.973694,410.901733 
	C423.000671,373.999298 422.993469,337.096863 422.996490,300.194397 
	C422.996704,297.784180 423.037933,295.373993 423.060089,292.963776 
	C426.971191,296.092896 430.882294,299.222046 434.622681,302.890808 
	C433.967896,305.620758 433.067566,307.810089 433.062042,310.001617 
	C432.973877,344.927155 433.059174,379.853149 432.954559,414.778595 
	C432.931366,422.523712 432.330170,430.267090 431.995056,438.011292 
z"/>
<path fill="#ACB0BB" opacity="1.000000" stroke="none" 
	d="
M252.172028,476.386658 
	C254.444901,474.753601 256.925293,472.227478 259.426178,472.207031 
	C273.827118,472.089478 288.232910,472.783356 302.636932,472.778473 
	C317.356842,472.773468 332.075958,472.219757 346.797119,472.072266 
	C348.777161,472.052429 350.766907,473.002716 352.911072,473.879333 
	C319.984283,494.997925 286.407074,495.087341 252.172028,476.386658 
z"/>
<path fill="#CBCFD8" opacity="1.000000" stroke="none" 
	d="
M151.988770,448.835175 
	C148.475067,448.763458 144.961380,448.691711 141.426376,447.994324 
	C141.598740,445.733459 141.972626,444.096527 141.957321,442.463226 
	C141.842773,430.246216 141.499054,418.029663 141.520142,405.813477 
	C141.550644,388.144592 141.901962,370.476135 141.908356,352.807434 
	C141.909180,350.538300 140.665146,348.268677 139.997772,345.999298 
	C143.442459,339.104095 146.887161,332.208923 150.860046,325.475525 
	C151.591949,327.436005 151.972076,329.234558 151.973480,331.033417 
	C152.003937,370.300659 151.992310,409.567902 151.988770,448.835175 
z"/>
<path fill="#CBCFD8" opacity="1.000000" stroke="none" 
	d="
M432.147339,438.308716 
	C432.330170,430.267090 432.931366,422.523712 432.954559,414.778595 
	C433.059174,379.853149 432.973877,344.927155 433.062042,310.001617 
	C433.067566,307.810089 433.967896,305.620758 434.768677,303.193878 
	C438.022827,306.403107 440.960236,309.848877 443.709442,313.904602 
	C443.013580,316.227203 442.140778,317.924133 442.066528,319.655334 
	C441.842529,324.877594 441.929962,330.113190 441.894104,335.343567 
	C441.767975,353.739319 441.534119,372.135162 441.544403,390.530823 
	C441.554718,409.041046 441.807617,427.551117 441.954224,446.061218 
	C438.736053,443.576202 435.517853,441.091156 432.147339,438.308716 
z"/>
<path fill="#D2D6DE" opacity="1.000000" stroke="none" 
	d="
M441.965576,446.038086 
	C441.807617,427.551117 441.554718,409.041046 441.544403,390.530823 
	C441.534119,372.135162 441.767975,353.739319 441.894104,335.343567 
	C441.929962,330.113190 441.842529,324.877594 442.066528,319.655334 
	C442.140778,317.924133 443.013580,316.227203 443.777740,314.248535 
	C446.966827,318.422760 449.899475,322.863037 452.479370,327.831451 
	C451.418243,332.371399 450.115051,336.380219 450.095093,340.395416 
	C449.929565,373.660522 450.114655,406.927643 449.877747,440.191895 
	C449.842682,445.114838 450.985474,448.094391 455.986938,448.970093 
	C451.883484,448.337921 447.780029,447.705719 443.166840,446.765686 
	C442.438385,446.274200 442.195465,446.131866 441.928345,446.030792 
	C441.928345,446.030792 441.976929,446.014893 441.965576,446.038086 
z"/>
<path fill="#B8BCC6" opacity="1.000000" stroke="none" 
	d="
M378.977234,450.682648 
	C363.955627,450.660889 349.102081,450.440002 334.259399,449.913116 
	C331.980377,449.832214 329.751343,448.341370 327.249603,447.250671 
	C334.706573,441.176636 342.275421,435.153870 350.230194,429.693329 
	C351.921326,428.532471 355.414215,426.511505 357.378815,430.644043 
	C357.590637,431.089569 359.747742,430.999207 360.789368,430.600555 
	C370.132385,427.024567 379.699524,428.504120 389.220276,429.277863 
	C389.848816,429.328979 390.373535,430.657379 390.990936,431.751709 
	C387.073212,438.202271 383.111053,444.292816 378.977234,450.682648 
z"/>
<path fill="#BFC3CC" opacity="1.000000" stroke="none" 
	d="
M422.864685,292.671936 
	C423.037933,295.373993 422.996704,297.784180 422.996490,300.194397 
	C422.993469,337.096863 423.000671,373.999298 422.973694,410.901733 
	C422.972839,412.039215 422.629547,413.176453 422.217712,414.659332 
	C419.671509,403.710083 417.450012,392.394135 414.978485,381.133057 
	C414.207886,377.621918 412.761261,374.259155 411.320709,370.932129 
	C410.993622,370.857391 410.969940,370.678955 410.942688,369.808228 
	C411.604584,363.070587 412.269989,357.025177 412.945740,350.540039 
	C413.278442,345.727814 413.600800,341.355316 413.923096,336.982819 
	C413.224091,328.682678 412.525085,320.382507 412.068909,311.295227 
	C412.214294,302.928802 412.116882,295.349518 412.019440,287.770203 
	C415.569397,289.306824 419.119354,290.843445 422.864685,292.671936 
z"/>
<path fill="#C5C9D2" opacity="1.000000" stroke="none" 
	d="
M152.363327,448.880005 
	C151.992310,409.567902 152.003937,370.300659 151.973480,331.033417 
	C151.972076,329.234558 151.591949,327.436005 151.150330,325.292603 
	C153.726013,320.366577 156.539597,315.785309 159.654526,311.034668 
	C159.975845,355.627350 159.995834,400.389374 160.024719,445.627197 
	C157.601715,447.043579 155.169800,447.984192 152.363327,448.880005 
z"/>
<path fill="#D7DBE3" opacity="1.000000" stroke="none" 
	d="
M456.366547,448.957001 
	C450.985474,448.094391 449.842682,445.114838 449.877747,440.191895 
	C450.114655,406.927643 449.929565,373.660522 450.095093,340.395416 
	C450.115051,336.380219 451.418243,332.371399 452.442200,328.187500 
	C455.181915,333.059021 457.606079,338.102631 459.829590,343.886444 
	C459.418976,346.587769 459.028168,348.548737 459.026093,350.510071 
	C458.991211,383.251434 459.004944,415.992859 459.007874,448.734253 
	C458.253967,448.804169 457.500061,448.874054 456.366547,448.957001 
z"/>
<path fill="#E3E8EE" opacity="1.000000" stroke="none" 
	d="
M466.018127,356.955109 
	C468.450806,364.862061 470.771729,372.805542 473.342072,380.667480 
	C477.327881,392.858856 481.788208,405.064362 480.610779,418.089050 
	C480.049438,424.298889 478.090118,430.637054 475.462952,436.315125 
	C473.736298,440.046814 469.684937,442.702911 466.174988,445.524078 
	C465.451691,443.569672 465.035889,441.932251 465.033295,440.294159 
	C464.992279,414.463440 464.982574,388.632599 465.048096,362.802002 
	C465.053040,360.852203 465.680176,358.904022 466.018127,356.955109 
z"/>
<path fill="#B1B5C0" opacity="1.000000" stroke="none" 
	d="
M183.995605,394.661804 
	C182.965256,391.958160 181.719604,388.949829 181.417542,385.849579 
	C181.025986,381.831055 181.425735,377.739136 181.414597,373.679047 
	C181.391983,365.432190 181.297455,357.185547 181.279022,348.938690 
	C181.261414,341.054932 181.366776,333.170471 181.300537,325.287323 
	C181.231354,317.052399 181.126526,308.814636 180.808243,300.586975 
	C180.716202,298.207336 179.835159,295.858215 179.126953,293.166138 
	C182.359375,291.221405 185.780685,289.605652 189.727707,288.296875 
	C190.850281,294.779022 191.447144,300.954224 192.044006,307.129395 
	C190.715546,315.769745 189.387085,324.410126 188.044647,333.970917 
	C188.390793,341.922333 188.750900,348.953308 189.111023,355.984283 
	C189.736511,360.712250 190.361984,365.440186 190.979523,370.604370 
	C190.320816,371.565460 189.238037,371.987793 189.085388,372.630890 
	C187.374222,379.839722 185.806290,387.082581 183.995605,394.661804 
z"/>
<path fill="#D7DBE3" opacity="1.000000" stroke="none" 
	d="
M132.002014,442.993652 
	C124.087471,436.978760 122.178864,428.174744 121.223473,419.091278 
	C120.115250,408.554779 123.437317,398.596527 125.904167,388.561951 
	C127.314095,382.826752 128.941666,377.144989 131.154816,371.270813 
	C132.890717,373.655701 134.817505,376.196259 134.854965,378.764343 
	C135.119797,396.921661 135.143097,415.086853 134.862778,433.243683 
	C134.812378,436.507599 133.000580,439.744354 132.002014,442.993652 
z"/>
<path fill="#D2D6DE" opacity="1.000000" stroke="none" 
	d="
M132.135162,443.309631 
	C133.000580,439.744354 134.812378,436.507599 134.862778,433.243683 
	C135.143097,415.086853 135.119797,396.921661 134.854965,378.764343 
	C134.817505,376.196259 132.890717,373.655701 131.471802,371.055206 
	C133.875488,362.814636 136.645752,354.621307 139.706909,346.213623 
	C140.665146,348.268677 141.909180,350.538300 141.908356,352.807434 
	C141.901962,370.476135 141.550644,388.144592 141.520142,405.813477 
	C141.499054,418.029663 141.842773,430.246216 141.957321,442.463226 
	C141.972626,444.096527 141.598740,445.733459 141.178528,447.698303 
	C138.057419,446.560455 135.162857,445.093048 132.135162,443.309631 
z"/>
<path fill="#CBCFD8" opacity="1.000000" stroke="none" 
	d="
M246.896362,407.974426 
	C243.839539,412.089081 239.658508,410.257141 235.919815,409.817627 
	C228.685196,408.967163 221.699509,408.552795 214.384094,410.492493 
	C210.313751,411.571777 205.443588,409.634644 200.554016,409.022583 
	C198.147110,402.267365 196.120071,395.546539 194.483505,388.438110 
	C211.252563,392.396545 227.648926,396.678528 243.975189,401.212952 
	C245.250610,401.567169 246.036011,403.685699 247.024353,405.358154 
	C246.965134,406.479553 246.930756,407.226990 246.896362,407.974426 
z"/>
<path fill="#DCE0E8" opacity="1.000000" stroke="none" 
	d="
M213.004517,105.973358 
	C216.370346,106.636925 219.711349,107.516624 223.108566,107.906891 
	C226.971146,108.350632 230.883942,108.357018 234.856201,108.786240 
	C228.548065,110.683968 222.037064,111.988586 215.796249,114.094124 
	C205.070770,117.712723 194.066544,121.072800 186.659515,130.796204 
	C179.305298,130.389847 172.278946,130.182831 165.252579,129.975815 
	C165.017029,120.499756 168.187958,112.112259 173.750214,104.264038 
	C175.978638,108.849770 180.496796,105.019730 183.457794,107.260696 
	C180.964630,112.306808 178.132736,116.972565 175.670792,121.825989 
	C175.087723,122.975456 175.746552,124.754875 175.834106,126.244522 
	C177.654266,125.758514 179.752029,125.683441 181.227249,124.686829 
	C183.263275,123.311378 184.539703,120.707520 186.647903,119.561089 
	C195.329239,114.840218 204.202087,110.471535 213.004517,105.973358 
z"/>
<path fill="#C5C9D2" opacity="1.000000" stroke="none" 
	d="
M255.014023,261.342773 
	C268.137726,261.620544 281.238892,262.677185 294.344940,262.742157 
	C306.784363,262.803864 319.228851,261.825287 331.671265,261.308624 
	C336.604858,261.103729 341.538910,260.910828 346.828186,260.879517 
	C347.490936,261.771027 347.798248,262.495483 348.183594,263.510681 
	C347.824524,265.265717 347.387390,266.730011 346.700775,268.497986 
	C330.224609,268.812408 313.997131,268.927826 297.771545,268.802307 
	C283.544403,268.692261 269.319366,268.311890 255.093399,268.050934 
	C255.050903,266.667755 255.008408,265.284607 254.987808,263.487183 
	C255.004349,262.611389 254.998993,262.149902 255.014023,261.342773 
z"/>
<path fill="#DCE0E8" opacity="1.000000" stroke="none" 
	d="
M465.979523,356.576263 
	C465.680176,358.904022 465.053040,360.852203 465.048096,362.802002 
	C464.982574,388.632599 464.992279,414.463440 465.033295,440.294159 
	C465.035889,441.932251 465.451691,443.569672 465.833466,445.591064 
	C463.901276,446.920227 461.810944,447.865753 459.364227,448.772766 
	C459.004944,415.992859 458.991211,383.251434 459.026093,350.510071 
	C459.028168,348.548737 459.418976,346.587769 459.871582,344.284180 
	C462.056488,348.026947 463.998718,352.112183 465.979523,356.576263 
z"/>
<path fill="#DCE0E8" opacity="1.000000" stroke="none" 
	d="
M366.523987,108.821762 
	C375.325775,108.546776 384.125854,108.166451 392.929810,108.026657 
	C401.587311,107.889191 410.251404,108.106628 418.906128,107.898643 
	C420.569916,107.858658 422.203674,106.568932 423.909607,105.471794 
	C426.387299,110.134476 428.806641,115.181107 430.810547,120.684143 
	C422.227264,121.442047 414.059448,121.743568 405.526184,122.011185 
	C401.527283,120.311958 398.014648,118.270836 394.236359,117.055878 
	C385.064667,114.106628 375.769440,111.541603 366.523987,108.821762 
z"/>
<path fill="#ACB0BB" opacity="1.000000" stroke="none" 
	d="
M228.038864,242.892059 
	C226.696365,243.509003 225.377563,244.596390 224.007446,244.665421 
	C216.006073,245.068634 207.993057,245.377289 199.983124,245.398499 
	C197.265900,245.405685 194.546204,244.483887 191.413177,243.993454 
	C182.090286,240.894775 176.151520,234.488251 171.943970,226.248352 
	C177.901764,225.623138 183.511169,225.294189 189.426010,225.096985 
	C194.730301,228.497086 199.414536,232.476318 204.804199,234.861633 
	C212.271210,238.166306 220.268585,240.272614 228.038864,242.892059 
z"/>
<path fill="#CBCFD8" opacity="1.000000" stroke="none" 
	d="
M255.866821,67.981583 
	C257.671326,66.004738 259.475830,64.027885 261.934570,62.213707 
	C265.065399,61.927544 267.541962,61.478722 270.256378,61.120888 
	C289.703217,61.310852 308.912323,61.392033 328.121063,61.529591 
	C330.748962,61.548409 333.374786,61.848194 336.258301,62.213577 
	C337.689178,62.246273 338.863373,62.083286 340.037567,61.920307 
	C341.476868,63.229427 342.916168,64.538544 344.489685,66.340317 
	C340.435883,67.056000 336.249146,67.440445 332.059540,67.475578 
	C306.662323,67.688507 281.264465,67.821724 255.866821,67.981583 
z"/>
<path fill="#B8BCC6" opacity="1.000000" stroke="none" 
	d="
M255.574921,68.151962 
	C281.264465,67.821724 306.662323,67.688507 332.059540,67.475578 
	C336.249146,67.440445 340.435883,67.056000 344.785767,66.510254 
	C346.278809,68.553116 347.609985,70.918724 348.971252,73.642883 
	C329.149078,73.332458 309.299805,72.296555 289.443390,72.132339 
	C277.565460,72.034119 265.676239,73.300491 253.347244,73.942551 
	C253.695923,72.061874 254.489471,70.192116 255.574921,68.151962 
z"/>
<path fill="#DCE0E8" opacity="1.000000" stroke="none" 
	d="
M453.678711,141.034592 
	C457.938934,145.583694 460.043365,150.892181 459.900482,157.205551 
	C459.715942,165.358063 460.067200,173.527924 459.712311,181.669571 
	C459.470764,187.210831 457.372620,192.207764 452.301910,195.677216 
	C451.527130,194.867783 451.133698,194.247589 451.131409,193.625977 
	C451.071381,177.243942 450.998077,160.861298 451.139587,144.480591 
	C451.149597,143.324707 452.794220,142.182922 453.678711,141.034592 
z"/>
<path fill="#D2D6DE" opacity="1.000000" stroke="none" 
	d="
M149.724426,196.190933 
	C147.231247,192.097107 142.907990,188.135193 142.601532,183.883743 
	C141.807617,172.869507 142.479309,161.706696 143.243958,150.650101 
	C143.463593,147.474411 145.991058,144.458344 148.146027,141.256851 
	C149.550003,142.952866 150.870407,144.754120 150.891479,146.570450 
	C151.061325,161.213791 151.032227,175.860291 150.930771,190.504898 
	C150.917618,192.402939 150.145157,194.295715 149.724426,196.190933 
z"/>
<path fill="#D7DBE3" opacity="1.000000" stroke="none" 
	d="
M336.001587,62.017891 
	C333.374786,61.848194 330.748962,61.548409 328.121063,61.529591 
	C308.912323,61.392033 289.703217,61.310852 269.876953,61.112038 
	C267.843658,60.682232 266.427612,60.352272 265.011597,60.022316 
	C269.783173,58.431023 274.460632,55.907795 279.343140,55.414497 
	C297.612427,53.568699 315.929962,52.758533 333.859985,58.233654 
	C334.796722,58.519695 335.666748,59.024132 336.653076,59.973534 
	C336.492737,61.019405 336.247162,61.518646 336.001587,62.017891 
z"/>
<path fill="#BFC3CC" opacity="1.000000" stroke="none" 
	d="
M447.266327,200.197617 
	C445.386292,201.053680 443.506287,201.909760 440.990234,202.907837 
	C440.179291,203.093399 440.004395,203.136978 439.829529,203.180542 
	C439.829529,203.180542 439.886230,203.226501 439.902191,202.750641 
	C439.952911,179.276398 439.987640,156.278015 440.022369,133.279648 
	C440.772919,133.253189 441.523438,133.226730 442.768982,133.357452 
	C443.433533,133.711929 443.625946,133.883545 443.841248,134.029510 
	C444.037354,134.120712 444.233459,134.211899 444.902893,134.466064 
	C445.589386,134.778183 445.820068,134.891769 446.068237,134.969788 
	C446.068237,134.969788 446.054810,135.030441 446.028748,135.489304 
	C445.998260,155.316589 445.955688,174.685196 446.045380,194.053177 
	C446.054871,196.103165 446.840668,198.149551 447.266327,200.197617 
z"/>
<path fill="#ACB0BB" opacity="1.000000" stroke="none" 
	d="
M405.281860,244.799072 
	C402.350647,244.575577 399.780365,244.231216 397.199524,244.010345 
	C390.531525,243.439743 383.858826,242.923660 377.175964,242.170135 
	C378.076660,241.640533 378.980164,241.296021 379.903595,241.017334 
	C390.414185,237.845276 401.008240,234.868225 410.313354,227.972229 
	C412.270020,227.581406 413.818298,226.829636 415.347900,226.865921 
	C418.529419,226.941391 421.701080,227.434341 424.876770,227.755722 
	C420.872345,236.144394 414.059143,241.350433 405.281860,244.799072 
z"/>
<path fill="#B8BCC6" opacity="1.000000" stroke="none" 
	d="
M159.934921,202.441864 
	C157.407074,201.493042 154.879227,200.544235 152.511261,199.132996 
	C153.117859,196.990143 153.943237,195.311874 153.952744,193.628983 
	C154.048584,176.662292 154.044510,159.694672 153.964386,142.727798 
	C153.955200,140.784073 153.311249,138.843323 152.961624,136.901199 
	C154.137375,136.034286 155.313141,135.167389 157.098267,134.535233 
	C158.474075,136.413116 159.897308,138.052246 159.907349,139.699997 
	C160.034714,160.613220 159.958939,181.527710 159.934921,202.441864 
z"/>
<path fill="#D2D6DE" opacity="1.000000" stroke="none" 
	d="
M405.891663,122.045090 
	C414.059448,121.743568 422.227264,121.442047 430.789001,121.079636 
	C431.708466,124.087692 432.234039,127.156654 432.468292,130.988068 
	C432.074371,136.490646 431.971710,141.230759 431.408783,145.979034 
	C427.352539,146.116486 423.756561,146.245789 420.093201,145.992371 
	C419.783813,144.002533 419.664032,142.365494 419.279266,140.793304 
	C417.316589,132.773315 412.268555,126.928261 405.891663,122.045090 
z"/>
<path fill="#ACB0BB" opacity="1.000000" stroke="none" 
	d="
M431.869049,145.970871 
	C431.971710,141.230759 432.074371,136.490646 432.345245,131.384659 
	C433.748535,131.369324 434.983551,131.719849 436.611145,132.557831 
	C437.020569,156.429794 437.037415,179.814316 437.054260,203.198837 
	C435.911926,203.795258 434.769562,204.391678 433.063293,204.666138 
	C432.012421,200.910095 431.525513,197.476044 431.192566,193.651611 
	C431.525970,187.485138 431.705444,181.709015 431.901123,175.468750 
	C431.901245,165.326675 431.885132,155.648773 431.869049,145.970871 
z"/>
<path fill="#ACB0BB" opacity="1.000000" stroke="none" 
	d="
M160.248398,202.690186 
	C159.958939,181.527710 160.034714,160.613220 159.907349,139.699997 
	C159.897308,138.052246 158.474075,136.413116 157.412674,134.588638 
	C159.456802,133.596146 161.795853,132.784973 164.529388,132.393280 
	C164.981842,137.200989 165.039810,141.589203 165.069199,146.445190 
	C165.053070,151.601654 165.065521,156.290344 165.059967,161.446121 
	C165.045532,166.602539 165.049118,171.291855 165.040756,176.450165 
	C165.029587,182.606934 165.030350,188.294724 165.024658,194.432129 
	C165.040527,197.831665 165.062881,200.781570 165.085236,203.731476 
	C163.577438,203.467148 162.069656,203.202820 160.248398,202.690186 
z"/>
<path fill="#D2D6DE" opacity="1.000000" stroke="none" 
	d="
M165.097778,145.977432 
	C165.039810,141.589203 164.981842,137.200989 164.909729,132.339401 
	C164.959229,131.442886 165.022873,131.019714 165.169540,130.286194 
	C172.278946,130.182831 179.305298,130.389847 186.570953,131.145416 
	C185.151047,136.730759 183.491882,141.767517 181.246475,146.650558 
	C175.472763,146.323685 170.285263,146.150558 165.097778,145.977432 
z"/>
<path fill="#B8BCC6" opacity="1.000000" stroke="none" 
	d="
M165.149216,204.160416 
	C165.062881,200.781570 165.040527,197.831665 165.438324,194.405731 
	C171.178833,192.950607 176.499222,191.971527 181.895782,191.455841 
	C181.924881,198.277328 181.877792,204.635422 181.374207,210.994949 
	C175.905777,211.014160 170.893875,211.031937 165.881958,211.049713 
	C165.659042,208.896271 165.436127,206.742813 165.149216,204.160416 
z"/>
<path fill="#A3A8B3" opacity="1.000000" stroke="none" 
	d="
M247.049164,404.984222 
	C246.036011,403.685699 245.250610,401.567169 243.975189,401.212952 
	C227.648926,396.678528 211.252563,392.396545 194.492676,388.049652 
	C193.734177,386.598022 193.356995,385.147247 193.051010,383.315002 
	C204.806686,386.310028 216.491165,389.686493 228.581894,393.117096 
	C234.258224,394.445648 239.471054,396.141357 244.815643,396.867615 
	C249.499176,397.504089 251.833496,399.209961 250.546051,404.552856 
	C249.108749,404.986816 248.078949,404.985535 247.049164,404.984222 
z"/>
<path fill="#A3A8B3" opacity="1.000000" stroke="none" 
	d="
M407.946777,387.741882 
	C396.923615,391.207886 386.115662,394.447784 375.228851,397.396423 
	C369.792572,398.868805 364.166595,399.639130 358.726501,401.099792 
	C357.224304,401.503082 356.081604,403.245331 354.466187,404.680603 
	C353.136597,404.982635 352.114746,404.977264 351.092896,404.971924 
	C350.930420,397.978729 351.072998,398.542175 357.853485,396.826263 
	C374.705750,392.561401 391.415192,387.732025 408.542175,383.041168 
	C408.644775,384.433868 408.387115,385.914703 407.946777,387.741882 
z"/>
<path fill="#B1B5C0" opacity="1.000000" stroke="none" 
	d="
M165.943237,211.456406 
	C170.893875,211.031937 175.905777,211.014160 181.545166,211.330811 
	C184.488632,216.098557 186.804611,220.531906 189.120590,224.965240 
	C183.511169,225.294189 177.901764,225.623138 171.875504,225.918045 
	C171.458664,225.884003 171.237396,225.940704 171.027405,225.745667 
	C170.664001,225.364410 170.492142,225.197174 170.301819,225.048904 
	C168.869400,220.653641 167.436966,216.258362 165.943237,211.456406 
z"/>
<path fill="#B8BCC6" opacity="1.000000" stroke="none" 
	d="
M411.767883,287.479462 
	C412.116882,295.349518 412.214294,302.928802 412.061371,310.876160 
	C406.564209,303.123413 401.317413,295.002655 395.995361,286.554016 
	C401.118866,286.547028 406.317627,286.867889 411.767883,287.479462 
z"/>
<path fill="#B1B5C0" opacity="1.000000" stroke="none" 
	d="
M425.186707,227.606842 
	C421.701080,227.434341 418.529419,226.941391 415.347900,226.865921 
	C413.818298,226.829636 412.270020,227.581406 410.452942,227.662506 
	C413.506897,221.896835 416.838104,216.444992 420.611023,210.993896 
	C424.426025,210.990128 427.799347,210.985580 431.172668,210.981033 
	C431.136871,217.112778 429.487061,222.688522 425.186707,227.606842 
z"/>
<path fill="#B8BCC6" opacity="1.000000" stroke="none" 
	d="
M437.398254,203.251648 
	C437.037415,179.814316 437.020569,156.429794 437.013000,132.585571 
	C437.818665,132.436127 438.615112,132.746399 439.716949,133.168167 
	C439.987640,156.278015 439.952911,179.276398 439.868774,202.765320 
	C439.127014,203.272064 438.434631,203.288269 437.398254,203.251648 
z"/>
<path fill="#B8BCC6" opacity="1.000000" stroke="none" 
	d="
M431.362915,210.619980 
	C427.799347,210.985580 424.426025,210.990128 420.543396,210.530975 
	C420.083282,204.708847 420.132477,199.350418 420.577087,193.992935 
	C424.327820,194.009918 427.683197,194.025940 431.038574,194.041977 
	C431.525513,197.476044 432.012421,200.910095 432.734131,204.663177 
	C432.496979,206.741089 432.025055,208.500015 431.362915,210.619980 
z"/>
<path fill="#D2D6DE" opacity="1.000000" stroke="none" 
	d="
M453.630768,140.716614 
	C452.794220,142.182922 451.149597,143.324707 451.139587,144.480591 
	C450.998077,160.861298 451.071381,177.243942 451.131409,193.625977 
	C451.133698,194.247589 451.527130,194.867783 452.001038,195.830399 
	C451.138367,197.367783 450.012970,198.563400 448.491333,199.240845 
	C448.064484,179.919495 448.006714,161.116257 448.047516,142.313248 
	C448.051361,140.532990 448.673920,138.754074 449.009216,136.974533 
	C450.533752,138.115906 452.058289,139.257278 453.630768,140.716614 
z"/>
<path fill="#C5C9D2" opacity="1.000000" stroke="none" 
	d="
M152.635010,136.979309 
	C153.311249,138.843323 153.955200,140.784073 153.964386,142.727798 
	C154.044510,159.694672 154.048584,176.662292 153.952744,193.628983 
	C153.943237,195.311874 153.117859,196.990143 152.318130,198.842285 
	C151.303543,198.258759 150.641983,197.503510 149.852417,196.469604 
	C150.145157,194.295715 150.917618,192.402939 150.930771,190.504898 
	C151.032227,175.860291 151.061325,161.213791 150.891479,146.570450 
	C150.870407,144.754120 149.550003,142.952866 148.446518,141.085510 
	C149.477036,139.703415 150.892715,138.380417 152.635010,136.979309 
z"/>
<path fill="#ACB0BB" opacity="1.000000" stroke="none" 
	d="
M192.295685,306.890228 
	C191.447144,300.954224 190.850281,294.779022 190.088028,288.205353 
	C195.032959,287.275055 200.143280,286.743225 205.724609,286.289795 
	C201.646210,293.129120 197.096802,299.890106 192.295685,306.890228 
z"/>
<path fill="#CBCFD8" opacity="1.000000" stroke="none" 
	d="
M448.881226,136.690094 
	C448.673920,138.754074 448.051361,140.532990 448.047516,142.313248 
	C448.006714,161.116257 448.064484,179.919495 448.121399,199.245880 
	C448.020386,199.973557 447.840454,200.107162 447.437134,200.183762 
	C446.840668,198.149551 446.054871,196.103165 446.045380,194.053177 
	C445.955688,174.685196 445.998260,155.316589 445.998962,135.480499 
	C446.914581,135.477097 447.833923,135.941360 448.881226,136.690094 
z"/>
<path fill="#D2D6DE" opacity="1.000000" stroke="none" 
	d="
M264.694916,60.049149 
	C266.427612,60.352272 267.843658,60.682232 269.639099,61.021042 
	C267.541962,61.478722 265.065399,61.927544 262.272949,62.148308 
	C262.764130,61.305492 263.571198,60.690739 264.694916,60.049149 
z"/>
<path fill="#D2D6DE" opacity="1.000000" stroke="none" 
	d="
M336.258301,62.213573 
	C336.247162,61.518646 336.492737,61.019405 336.863342,60.271820 
	C337.908508,60.467358 338.828674,60.911243 339.893219,61.637718 
	C338.863373,62.083286 337.689178,62.246273 336.258301,62.213573 
z"/>
<path fill="#B8BCC6" opacity="1.000000" stroke="none" 
	d="
M445.973694,134.760025 
	C445.820068,134.891769 445.589386,134.778183 445.224304,134.509583 
	C445.394684,134.174545 445.663605,134.227921 445.973694,134.760025 
z"/>
<path fill="#B8BCC6" opacity="1.000000" stroke="none" 
	d="
M443.822632,133.799225 
	C443.625946,133.883545 443.433533,133.711929 443.146240,133.360748 
	C443.385193,133.117325 443.643707,133.238022 443.822632,133.799225 
z"/>
<path fill="#B8BCC6" opacity="1.000000" stroke="none" 
	d="
M439.943298,203.375183 
	C440.004395,203.136978 440.179291,203.093399 440.620911,203.005859 
	C440.610748,203.164520 440.333923,203.367172 439.943298,203.375183 
z"/>
<path fill="#ACB0BB" opacity="1.000000" stroke="none" 
	d="
M170.274536,225.275482 
	C170.492142,225.197174 170.664001,225.364410 170.925323,225.694443 
	C170.687332,225.922318 170.425339,225.810272 170.274536,225.275482 
z"/>
<path fill="#CBCFD8" opacity="1.000000" stroke="none" 
	d="
M442.018250,446.258179 
	C442.195465,446.131866 442.438385,446.274200 442.811157,446.603271 
	C442.965210,446.748749 442.479431,446.803619 442.479431,446.803619 
	C442.479431,446.803619 442.108124,446.485565 442.018250,446.258179 
z"/>
<path fill="#DCE0E8" opacity="1.000000" stroke="none" 
	d="
M381.995117,356.995270 
	C325.925507,356.997864 269.855927,357.000458 213.469452,356.623810 
	C214.762848,351.492004 216.373169,346.739410 217.983505,341.986816 
	C225.549805,342.656097 233.112396,343.838928 240.683151,343.893890 
	C259.796692,344.032654 278.913605,343.586365 298.029663,343.517975 
	C321.811066,343.432892 345.592957,343.508636 369.374573,343.473358 
	C373.656982,343.467010 377.939026,343.259766 382.608826,343.496033 
	C383.327698,346.560059 383.658997,349.273315 383.844421,352.292053 
	C383.130737,354.063477 382.562927,355.529388 381.995117,356.995270 
z"/>
<path fill="#F1F2F6" opacity="1.000000" stroke="none" 
	d="
M218.009293,341.614990 
	C216.373169,346.739410 214.762848,351.492004 213.082535,356.624390 
	C211.697128,358.504791 210.381699,360.005371 209.066269,361.505951 
	C207.466293,359.879944 205.866318,358.253906 204.099304,355.910400 
	C203.276764,347.802338 202.621262,340.411804 201.965759,333.021271 
	C203.891617,319.335236 208.706970,306.794434 218.343781,296.762970 
	C223.114029,291.797394 228.761093,287.367523 234.725967,283.938019 
	C241.373749,280.115875 249.260590,285.643799 249.964264,293.781921 
	C250.569000,300.775452 247.447021,305.887024 242.029404,310.020630 
	C232.347992,317.407410 224.869751,326.678925 219.293030,337.482574 
	C218.693863,338.643250 218.445923,339.985260 218.009293,341.614990 
z"/>
<path fill="#B8BCC6" opacity="1.000000" stroke="none" 
	d="
M257.501495,279.062958 
	C256.713898,277.291718 255.926300,275.520508 255.535034,273.473633 
	C258.233185,273.465027 260.533081,273.941071 262.837158,273.962402 
	C272.306061,274.050049 281.776215,273.989014 291.245911,274.001984 
	C308.073029,274.025055 324.900604,274.015839 341.726501,274.176300 
	C343.160400,274.189972 344.583130,275.372955 346.011047,276.012756 
	C345.559174,277.220612 345.107330,278.428436 344.016357,279.873108 
	C315.567444,279.897644 287.757599,279.688660 259.947906,279.456604 
	C259.131409,279.449799 258.316925,279.199646 257.501495,279.062958 
z"/>
<path fill="#BFC3CC" opacity="1.000000" stroke="none" 
	d="
M346.237915,275.694275 
	C344.583130,275.372955 343.160400,274.189972 341.726501,274.176300 
	C324.900604,274.015839 308.073029,274.025055 291.245911,274.001984 
	C281.776215,273.989014 272.306061,274.050049 262.837158,273.962402 
	C260.533081,273.941071 258.233185,273.465027 255.542633,273.121643 
	C255.116119,271.656219 255.078323,270.267120 255.066956,268.464478 
	C269.319366,268.311890 283.544403,268.692261 297.771545,268.802307 
	C313.997131,268.927826 330.224609,268.812408 346.678406,268.897247 
	C346.758606,271.120453 346.611694,273.248138 346.237915,275.694275 
z"/>
<path fill="#B1B5C0" opacity="1.000000" stroke="none" 
	d="
M257.609436,279.408203 
	C258.316925,279.199646 259.131409,279.449799 259.947906,279.456604 
	C287.757599,279.688660 315.567444,279.897644 343.750031,280.069275 
	C342.796844,281.658569 341.470886,283.288513 339.326965,284.992065 
	C312.981140,285.050995 287.453278,285.036285 261.925446,285.021606 
	C260.522766,283.265564 259.120056,281.509491 257.609436,279.408203 
z"/>
<path fill="#D7DBE3" opacity="1.000000" stroke="none" 
	d="
M383.990265,351.986572 
	C383.658997,349.273315 383.327698,346.560059 382.992676,343.416809 
	C383.321106,341.250854 383.653290,339.514862 383.984192,337.390656 
	C393.656067,336.999176 403.329224,336.995941 413.462769,336.987762 
	C413.600800,341.355316 413.278442,345.727814 412.526367,350.556030 
	C402.727814,351.336700 393.359039,351.661652 383.990265,351.986572 
z"/>
<path fill="#ACB0BB" opacity="1.000000" stroke="none" 
	d="
M262.099365,285.311401 
	C287.453278,285.036285 312.981140,285.050995 339.024567,285.079712 
	C337.030487,287.053528 334.520782,289.013306 331.234863,290.941162 
	C328.011078,290.606689 325.564911,290.056305 323.115692,290.042419 
	C308.560608,289.960052 294.004333,289.942444 279.449585,290.051514 
	C276.509735,290.073517 273.574615,290.732727 270.637329,291.098145 
	C267.849304,289.265808 265.061279,287.433502 262.099365,285.311401 
z"/>
<path fill="#A3A8B3" opacity="1.000000" stroke="none" 
	d="
M270.916992,291.342957 
	C273.574615,290.732727 276.509735,290.073517 279.449585,290.051514 
	C294.004333,289.942444 308.560608,289.960052 323.115692,290.042419 
	C325.564911,290.056305 328.011078,290.606689 330.900879,291.002441 
	C319.018829,298.106781 305.540619,299.114227 291.975891,297.491821 
	C284.915100,296.647278 278.114716,293.625885 270.916992,291.342957 
z"/>
<path fill="#DCE0E8" opacity="1.000000" stroke="none" 
	d="
M201.510284,333.016174 
	C202.621262,340.411804 203.276764,347.802338 203.942657,355.603271 
	C199.309128,356.007202 194.665176,356.000702 189.566132,355.989258 
	C188.750900,348.953308 188.390793,341.922333 188.072937,334.429688 
	C192.428421,333.649017 196.741623,333.330048 201.510284,333.016174 
z"/>
<path fill="#0F222E" opacity="1.000000" stroke="none" 
	d="
M420.181702,193.991989 
	C420.132477,199.350418 420.083282,204.708847 420.101685,210.530212 
	C416.838104,216.444992 413.506897,221.896835 410.036133,227.658417 
	C401.008240,234.868225 390.414185,237.845276 379.903595,241.017334 
	C378.980164,241.296021 378.076660,241.640533 376.745483,242.056320 
	C328.531403,251.599686 280.645874,251.709259 232.091370,243.312286 
	C231.501999,243.084518 231.026596,243.157822 231.026596,243.157806 
	C230.280045,243.092865 229.533493,243.027908 228.412903,242.927505 
	C220.268585,240.272614 212.271210,238.166306 204.804199,234.861633 
	C199.414536,232.476318 194.730301,228.497086 189.426010,225.096985 
	C186.804611,220.531906 184.488632,216.098557 182.001678,211.329376 
	C181.877792,204.635422 181.924881,198.277328 181.964447,190.993805 
	C181.912155,185.043289 181.867386,180.018234 181.891510,174.533264 
	C181.914368,169.713348 181.868317,165.353317 181.891907,160.535034 
	C181.918579,155.652603 181.875641,151.228455 181.832703,146.804291 
	C183.491882,141.767517 185.151047,136.730759 186.898804,131.344788 
	C194.066544,121.072800 205.070770,117.712723 215.796249,114.094124 
	C222.037064,111.988586 228.548065,110.683968 235.378326,108.920845 
	C244.670792,107.620399 253.509750,106.311211 262.378937,105.256294 
	C267.606934,104.634468 272.879761,104.127571 278.137848,104.070778 
	C292.922150,103.911079 307.745575,103.364273 322.484985,104.191521 
	C337.149628,105.014572 351.731018,107.320770 366.436462,108.899193 
	C375.769440,111.541603 385.064667,114.106628 394.236359,117.055878 
	C398.014648,118.270836 401.527283,120.311958 405.526184,122.011192 
	C412.268555,126.928261 417.316589,132.773315 419.279266,140.793304 
	C419.664032,142.365494 419.783813,144.002533 420.023499,146.367401 
	C420.077576,156.744690 420.133942,166.364227 420.108826,176.446503 
	C420.078796,182.603485 420.130249,188.297729 420.181702,193.991989 
M343.197174,116.287819 
	C335.820312,115.107651 328.448303,113.895981 321.065552,112.753769 
	C304.895172,110.251991 288.733978,111.437080 272.709045,113.726097 
	C263.371521,115.059875 254.096695,117.371376 245.050751,120.096397 
	C226.069550,125.814331 209.076904,135.112167 196.630157,151.010727 
	C184.904449,165.988312 184.791397,185.749435 195.481094,201.158585 
	C204.201172,213.728516 216.482224,221.346207 229.790451,227.549881 
	C252.317078,238.050751 276.404724,241.826416 301.018585,241.891769 
	C323.178680,241.950623 344.918884,238.876144 365.634674,230.307709 
	C379.877045,224.416809 393.121307,217.268906 403.363617,205.248962 
	C410.722992,196.612244 415.051941,186.796799 414.659424,175.667191 
	C414.248047,164.000412 409.135376,153.806931 400.903137,145.446884 
	C385.183533,129.483185 365.394775,121.400284 343.197174,116.287819 
z"/>
<path fill="#F1F2F6" opacity="1.000000" stroke="none" 
	d="
M213.262619,105.726715 
	C204.202087,110.471535 195.329239,114.840218 186.647903,119.561089 
	C184.539703,120.707520 183.263275,123.311378 181.227249,124.686829 
	C179.752029,125.683441 177.654266,125.758514 175.834106,126.244522 
	C175.746552,124.754875 175.087723,122.975456 175.670792,121.825989 
	C178.132736,116.972565 180.964630,112.306808 183.837097,107.283356 
	C194.346985,97.167274 206.972641,91.898415 220.597458,88.635277 
	C221.883743,88.327217 223.211227,88.158424 224.529648,88.023323 
	C228.485291,87.617958 230.962234,89.424530 231.769562,93.269424 
	C232.644745,97.437386 230.616791,99.952232 226.768097,101.210892 
	C222.358536,102.652985 217.937042,104.058601 213.262619,105.726715 
z"/>
<path fill="#D2D6DE" opacity="1.000000" stroke="none" 
	d="
M383.844421,352.292053 
	C393.359039,351.661652 402.727814,351.336700 412.515991,350.995789 
	C412.269989,357.025177 411.604584,363.070587 410.910522,369.540131 
	C401.070892,373.736786 390.851715,371.470276 380.406372,371.992554 
	C380.660217,367.277283 381.328979,362.565521 381.996429,357.424530 
	C382.562927,355.529388 383.130737,354.063477 383.844421,352.292053 
z"/>
<path fill="#ACB0BB" opacity="1.000000" stroke="none" 
	d="
M351.060730,405.389099 
	C352.114746,404.977264 353.136597,404.982635 354.540833,404.979919 
	C355.044403,416.658325 355.961273,414.096710 345.462280,416.178619 
	C326.124664,420.013214 306.547729,420.733887 286.975067,419.808350 
	C275.429474,419.262390 263.975464,416.945160 252.452042,415.682159 
	C248.001678,415.194397 246.340836,413.090607 246.926422,408.408478 
	C246.930756,407.226990 246.965134,406.479553 247.024353,405.358154 
	C248.078949,404.985535 249.108749,404.986816 250.523102,404.980103 
	C250.365158,409.751129 252.522491,411.965454 257.306366,412.047607 
	C259.587372,412.086792 261.859772,412.626953 264.932556,413.103638 
	C286.021912,416.438232 306.376160,416.895752 326.781219,414.556580 
	C329.873169,414.202148 332.928558,413.528839 336.000854,413.002991 
	C339.271332,412.640198 342.536560,412.216949 345.813690,411.930511 
	C349.620728,411.597778 351.528961,409.754578 351.060730,405.389099 
z"/>
<path fill="#C5C9D2" opacity="1.000000" stroke="none" 
	d="
M335.813843,412.694519 
	C332.928558,413.528839 329.873169,414.202148 326.781219,414.556580 
	C306.376160,416.895752 286.021912,416.438232 265.355774,413.089203 
	C264.857452,410.231476 266.045532,408.987366 268.817169,408.993195 
	C289.393127,409.036682 309.970093,408.939514 330.543640,409.166168 
	C332.249664,409.184937 333.932983,411.264130 335.813843,412.694519 
z"/>
<path fill="#ACB0BB" opacity="1.000000" stroke="none" 
	d="
M231.123291,243.243317 
	C231.026596,243.157822 231.501999,243.084518 231.717728,243.190353 
	C231.933456,243.296188 231.576065,243.424423 231.576065,243.424423 
	C231.576065,243.424423 231.219971,243.328812 231.123291,243.243317 
z"/>
<path fill="#CBCFD8" opacity="1.000000" stroke="none" 
	d="
M420.190277,175.983780 
	C420.133942,166.364227 420.077576,156.744690 420.090881,146.750122 
	C423.756561,146.245789 427.352539,146.116486 431.408783,145.979034 
	C431.885132,155.648773 431.901245,165.326675 431.456024,175.484314 
	C427.393250,175.970627 423.791748,175.977203 420.190277,175.983780 
z"/>
<path fill="#BFC3CC" opacity="1.000000" stroke="none" 
	d="
M420.108826,176.446503 
	C423.791748,175.977203 427.393250,175.970627 431.439819,175.948486 
	C431.705444,181.709015 431.525970,187.485138 431.192566,193.651611 
	C427.683197,194.025940 424.327820,194.009918 420.577087,193.992935 
	C420.130249,188.297729 420.078796,182.603485 420.108826,176.446503 
z"/>
<path fill="#BFC3CC" opacity="1.000000" stroke="none" 
	d="
M181.822601,174.993164 
	C181.867386,180.018234 181.912155,185.043289 181.888275,190.530396 
	C176.499222,191.971527 171.178833,192.950607 165.444794,193.956100 
	C165.030350,188.294724 165.029587,182.606934 165.500641,176.455780 
	C171.255844,175.659317 176.539230,175.326248 181.822601,174.993164 
z"/>
<path fill="#C5C9D2" opacity="1.000000" stroke="none" 
	d="
M181.891510,174.533264 
	C176.539230,175.326248 171.255844,175.659317 165.512589,175.986786 
	C165.049118,171.291855 165.045532,166.602539 165.518936,161.452209 
	C171.271362,160.991913 176.546829,160.992599 181.822266,160.993286 
	C181.868317,165.353317 181.914368,169.713348 181.891510,174.533264 
z"/>
<path fill="#CBCFD8" opacity="1.000000" stroke="none" 
	d="
M181.891907,160.535034 
	C176.546829,160.992599 171.271362,160.991913 165.536942,160.985138 
	C165.065521,156.290344 165.053070,151.601654 165.069199,146.445190 
	C170.285263,146.150558 175.472763,146.323685 181.246475,146.650558 
	C181.875641,151.228455 181.918579,155.652603 181.891907,160.535034 
z"/>
<path fill="#0F2533" opacity="1.000000" stroke="none" 
	d="
M343.605560,116.395042 
	C365.394775,121.400284 385.183533,129.483185 400.903137,145.446884 
	C409.135376,153.806931 414.248047,164.000412 414.659424,175.667191 
	C415.051941,186.796799 410.722992,196.612244 403.363617,205.248962 
	C393.121307,217.268906 379.877045,224.416809 365.634674,230.307709 
	C344.918884,238.876144 323.178680,241.950623 301.018585,241.891769 
	C276.404724,241.826416 252.317078,238.050751 229.790451,227.549881 
	C216.482224,221.346207 204.201172,213.728516 195.481094,201.158585 
	C184.791397,185.749435 184.904449,165.988312 196.630157,151.010727 
	C209.076904,135.112167 226.069550,125.814331 245.050751,120.096397 
	C254.096695,117.371376 263.371521,115.059875 272.709045,113.726097 
	C288.733978,111.437080 304.895172,110.251991 321.065552,112.753769 
	C328.448303,113.895981 335.820312,115.107651 343.605560,116.395042 
M338.021515,230.909027 
	C343.523712,229.343918 349.218170,228.254013 354.490570,226.120926 
	C368.052673,220.634048 380.504486,213.625885 391.104309,202.958450 
	C401.891479,192.102463 406.471069,174.869171 399.402161,161.437027 
	C389.316315,142.272263 371.611725,132.880630 352.058838,126.680191 
	C342.607208,123.682983 332.596344,122.448814 322.837799,120.420700 
	C320.902344,120.018448 318.966064,119.321709 317.024597,119.301720 
	C310.563782,119.235191 303.976471,120.256866 297.663513,119.327393 
	C283.946930,117.307861 270.687561,120.617638 258.057251,123.997261 
	C238.866043,129.132462 220.413757,137.018341 207.561981,153.836792 
	C201.423813,161.869507 198.301147,170.463058 199.647598,180.532486 
	C202.033936,198.378738 214.729004,208.785202 228.420242,217.275162 
	C237.566940,222.947052 248.407837,226.352066 258.910889,229.246048 
	C270.379150,232.405991 282.319061,233.882172 294.082458,235.924957 
	C297.319916,236.487152 300.748505,237.048447 303.939026,236.581879 
	C315.062347,234.955261 326.119751,232.878052 338.021515,230.909027 
z"/>
<path fill="#122938" opacity="1.000000" stroke="none" 
	d="
M337.611877,230.940582 
	C326.119751,232.878052 315.062347,234.955261 303.939026,236.581879 
	C300.748505,237.048447 297.319916,236.487152 294.082458,235.924957 
	C282.319061,233.882172 270.379150,232.405991 258.910889,229.246048 
	C248.407837,226.352066 237.566940,222.947052 228.420242,217.275162 
	C214.729004,208.785202 202.033936,198.378738 199.647598,180.532486 
	C198.301147,170.463058 201.423813,161.869507 207.561981,153.836792 
	C220.413757,137.018341 238.866043,129.132462 258.057251,123.997261 
	C270.687561,120.617638 283.946930,117.307861 297.663513,119.327393 
	C303.976471,120.256866 310.563782,119.235191 317.024597,119.301720 
	C318.966064,119.321709 320.902344,120.018448 322.837799,120.420700 
	C332.596344,122.448814 342.607208,123.682983 352.058838,126.680191 
	C371.611725,132.880630 389.316315,142.272263 399.402161,161.437027 
	C406.471069,174.869171 401.891479,192.102463 391.104309,202.958450 
	C380.504486,213.625885 368.052673,220.634048 354.490570,226.120926 
	C349.218170,228.254013 343.523712,229.343918 337.611877,230.940582 
M318.793579,129.995850 
	C317.961487,129.974350 317.126465,129.990311 316.297729,129.925781 
	C301.274536,128.756256 286.266022,127.994720 271.462097,131.840378 
	C267.061340,132.983582 262.681915,135.306808 258.312561,135.259552 
	C246.928101,135.136398 237.596771,140.704941 228.271225,145.590393 
	C216.147568,151.941772 211.300079,162.908035 211.880142,176.731567 
	C212.459808,190.545883 222.886215,205.637024 235.863220,209.901581 
	C243.526810,212.420044 251.297058,214.657349 258.829559,217.520447 
	C268.648132,221.252502 278.271210,225.497635 287.997772,229.474609 
	C289.518982,230.096588 291.111420,230.658035 292.724274,230.924393 
	C306.652191,233.224655 319.354370,228.912994 331.016235,222.208832 
	C337.075653,218.725418 343.525238,217.686310 349.812927,215.605896 
	C355.950500,213.575180 362.885315,212.981140 368.218109,209.713226 
	C376.749603,204.485184 385.282349,198.963608 389.032532,188.287155 
	C392.680634,177.901230 393.406769,167.986954 387.796295,158.569962 
	C381.563721,148.108932 371.612762,142.110245 359.980927,139.034561 
	C351.403595,136.766556 342.745819,134.792984 334.093292,132.822525 
	C329.330444,131.737869 324.504364,130.930771 318.793579,129.995850 
z"/>
<path fill="#153040" opacity="1.000000" stroke="none" 
	d="
M319.250183,129.997192 
	C324.504364,130.930771 329.330444,131.737869 334.093292,132.822525 
	C342.745819,134.792984 351.403595,136.766556 359.980927,139.034561 
	C371.612762,142.110245 381.563721,148.108932 387.796295,158.569962 
	C393.406769,167.986954 392.680634,177.901230 389.032532,188.287155 
	C385.282349,198.963608 376.749603,204.485184 368.218109,209.713226 
	C362.885315,212.981140 355.950500,213.575180 349.812927,215.605896 
	C343.525238,217.686310 337.075653,218.725418 331.016235,222.208832 
	C319.354370,228.912994 306.652191,233.224655 292.724274,230.924393 
	C291.111420,230.658035 289.518982,230.096588 287.997772,229.474609 
	C278.271210,225.497635 268.648132,221.252502 258.829559,217.520447 
	C251.297058,214.657349 243.526810,212.420044 235.863220,209.901581 
	C222.886215,205.637024 212.459808,190.545883 211.880142,176.731567 
	C211.300079,162.908035 216.147568,151.941772 228.271225,145.590393 
	C237.596771,140.704941 246.928101,135.136398 258.312561,135.259552 
	C262.681915,135.306808 267.061340,132.983582 271.462097,131.840378 
	C286.266022,127.994720 301.274536,128.756256 316.297729,129.925781 
	C317.126465,129.990311 317.961487,129.974350 319.250183,129.997192 
M310.681122,224.203995 
	C314.582794,222.581329 319.676392,221.992355 322.154297,219.135010 
	C328.623840,211.674896 337.866699,210.187027 346.001282,206.501831 
	C349.801971,204.779999 354.671326,205.381378 359.062927,205.007233 
	C367.807312,204.262268 379.991730,194.321152 382.822327,186.072800 
	C387.456207,172.569626 382.364441,158.863800 371.887115,151.658279 
	C365.511017,147.273270 358.396271,144.313370 350.034576,144.671677 
	C344.403625,144.912979 338.673004,143.350540 333.019897,142.399292 
	C327.813354,141.523178 322.689514,140.032211 317.458344,139.459534 
	C311.866760,138.847382 306.165588,139.275925 300.559509,138.748184 
	C289.126404,137.671906 278.222931,140.519821 267.203613,142.670746 
	C264.028870,143.290451 260.748138,143.454285 257.632294,144.270859 
	C250.657364,146.098862 242.920837,143.194702 236.422089,147.699921 
	C233.484818,149.736191 230.426575,151.673767 227.802124,154.070969 
	C220.407349,160.825409 216.672562,169.665329 218.162506,179.302948 
	C220.335861,193.361145 235.419601,205.763138 249.593445,206.610275 
	C257.822113,207.102097 265.598053,208.502655 272.119843,214.209274 
	C274.913818,216.654037 278.110779,218.833176 281.465912,220.404083 
	C290.496185,224.632172 299.854828,227.457031 310.681122,224.203995 
M322.472382,138.499619 
	C322.472382,138.499619 322.513550,138.484009 322.472382,138.499619 
z"/>
<path fill="#183749" opacity="1.000000" stroke="none" 
	d="
M310.330566,224.386719 
	C299.854828,227.457031 290.496185,224.632172 281.465912,220.404083 
	C278.110779,218.833176 274.913818,216.654037 272.119843,214.209274 
	C265.598053,208.502655 257.822113,207.102097 249.593445,206.610275 
	C235.419601,205.763138 220.335861,193.361145 218.162506,179.302948 
	C216.672562,169.665329 220.407349,160.825409 227.802124,154.070969 
	C230.426575,151.673767 233.484818,149.736191 236.422089,147.699921 
	C242.920837,143.194702 250.657364,146.098862 257.632294,144.270859 
	C260.748138,143.454285 264.028870,143.290451 267.203613,142.670746 
	C278.222931,140.519821 289.126404,137.671906 300.559509,138.748184 
	C306.165588,139.275925 311.866760,138.847382 317.458344,139.459534 
	C322.689514,140.032211 327.813354,141.523178 333.019897,142.399292 
	C338.673004,143.350540 344.403625,144.912979 350.034576,144.671677 
	C358.396271,144.313370 365.511017,147.273270 371.887115,151.658279 
	C382.364441,158.863800 387.456207,172.569626 382.822327,186.072800 
	C379.991730,194.321152 367.807312,204.262268 359.062927,205.007233 
	C354.671326,205.381378 349.801971,204.779999 346.001282,206.501831 
	C337.866699,210.187027 328.623840,211.674896 322.154297,219.135010 
	C319.676392,221.992355 314.582794,222.581329 310.330566,224.386719 
M374.440552,182.749313 
	C374.678223,182.546509 374.865234,182.304535 375.024139,181.217834 
	C377.637146,176.032333 374.194519,171.740250 372.957153,166.355453 
	C372.175171,164.823853 371.672974,163.043625 370.567383,161.799591 
	C360.720917,150.720108 348.026978,150.259460 334.528931,151.861710 
	C328.887207,152.531418 323.071533,151.706528 317.334137,151.605591 
	C307.108368,151.425690 296.882477,151.230469 286.655762,151.137527 
	C280.418823,151.080841 274.068756,151.959091 267.969940,151.059067 
	C259.877228,149.864807 251.932709,149.225967 244.649948,153.145126 
	C240.660294,155.292160 237.550583,159.074341 233.767456,162.726913 
	C232.608047,163.884583 231.379745,164.981750 230.300903,166.210190 
	C225.106171,172.125183 224.585052,179.512939 229.148453,184.697632 
	C232.142349,188.287872 234.455475,193.094559 238.265366,195.226715 
	C247.500259,200.394943 257.883240,201.585190 268.500763,201.188431 
	C270.559998,201.111481 273.480713,202.919662 274.668823,204.733063 
	C278.016113,209.842178 282.174652,213.464615 288.721039,215.288696 
	C294.730988,224.830750 307.073944,224.665466 314.621155,214.932236 
	C319.721405,214.579620 321.244934,209.969727 324.247528,207.045319 
	C326.965424,204.398193 329.979187,201.002731 333.351898,200.305801 
	C339.773407,198.978943 346.540497,199.222153 353.170380,199.030853 
	C362.743256,198.754639 369.542358,193.483810 372.559448,183.910934 
	C373.059479,183.610428 373.559540,183.309921 374.440552,182.749313 
z"/>
<path fill="#183749" opacity="1.000000" stroke="none" 
	d="
M322.492981,138.491821 
	C322.513550,138.484009 322.472382,138.499619 322.492981,138.491821 
z"/>
<path fill="#1A3D50" opacity="1.000000" stroke="none" 
	d="
M372.009521,184.163193 
	C369.542358,193.483810 362.743256,198.754639 353.170380,199.030853 
	C346.540497,199.222153 339.773407,198.978943 333.351898,200.305801 
	C329.979187,201.002731 326.965424,204.398193 324.247528,207.045319 
	C321.244934,209.969727 319.721405,214.579620 314.308655,214.531784 
	C314.488586,211.649490 314.981018,209.167648 315.528473,206.408463 
	C305.489838,206.408463 296.290680,206.408463 286.386261,206.408463 
	C287.032562,209.593979 287.576538,212.275253 288.120544,214.956543 
	C282.174652,213.464615 278.016113,209.842178 274.668823,204.733063 
	C273.480713,202.919662 270.559998,201.111481 268.500763,201.188431 
	C257.883240,201.585190 247.500259,200.394943 238.265366,195.226715 
	C234.455475,193.094559 232.142349,188.287872 229.517471,184.340408 
	C236.255020,183.709625 242.623535,183.436050 249.000732,183.534637 
	C249.601471,185.200562 249.840149,187.087143 250.846008,187.686783 
	C255.521301,190.473862 260.415558,193.804626 266.140839,191.366974 
	C273.819397,188.097717 281.289246,189.201141 289.214783,190.292938 
	C297.326447,191.410339 305.851654,191.457703 313.935028,190.240860 
	C320.463013,189.258118 326.447601,185.814804 333.257599,189.602112 
	C335.878082,191.059464 339.336243,191.067368 342.437164,191.590988 
	C347.211945,192.397232 353.061523,188.076004 354.462006,183.081848 
	C360.614471,183.395309 366.312012,183.779251 372.009521,184.163193 
z"/>
<path fill="#1A3D50" opacity="1.000000" stroke="none" 
	d="
M234.044067,162.119171 
	C237.550583,159.074341 240.660294,155.292160 244.649948,153.145126 
	C251.932709,149.225967 259.877228,149.864807 267.969940,151.059067 
	C274.068756,151.959091 280.418823,151.080841 286.655762,151.137527 
	C296.882477,151.230469 307.108368,151.425690 317.334137,151.605591 
	C323.071533,151.706528 328.887207,152.531418 334.528931,151.861710 
	C348.026978,150.259460 360.720917,150.720108 370.567383,161.799591 
	C371.672974,163.043625 372.175171,164.823853 372.641357,166.597153 
	C366.287445,159.515900 358.540344,158.729492 349.596313,160.987488 
	C341.870575,157.774200 335.398285,160.347839 328.900146,163.706451 
	C327.308685,164.529022 324.850983,164.863159 323.234406,164.251465 
	C314.540894,160.961853 305.645874,160.178894 296.490753,161.106400 
	C293.391479,161.420410 289.792603,160.589401 287.260895,161.900970 
	C282.532104,164.350693 278.293732,163.994156 273.581512,162.450211 
	C267.126282,160.335114 260.579773,156.507095 253.562698,162.065277 
	C246.775818,158.557953 240.405823,159.656540 234.044067,162.119171 
z"/>
<path fill="#68E7F4" opacity="1.000000" stroke="none" 
	d="
M349.993958,161.000290 
	C358.540344,158.729492 366.287445,159.515900 372.635193,166.981750 
	C374.194519,171.740250 377.637146,176.032333 374.821381,181.749603 
	C374.377472,182.481949 374.191132,182.724625 374.059570,183.009399 
	C373.559540,183.309921 373.059479,183.610428 372.284485,184.037064 
	C366.312012,183.779251 360.614471,183.395309 354.039978,183.011353 
	C351.576721,183.323654 350.001282,183.715546 348.402222,183.934158 
	C342.356201,184.760605 338.295319,183.068573 339.799988,174.626572 
	C340.954468,168.149384 344.718170,164.134323 349.993958,161.000290 
z"/>
<path fill="#68E7F4" opacity="1.000000" stroke="none" 
	d="
M233.905762,162.423035 
	C240.405823,159.656540 246.775818,158.557953 253.711670,162.369629 
	C260.625275,166.842590 262.817596,172.929260 261.785919,180.094498 
	C261.575989,181.552612 259.239380,183.550415 257.662140,183.779831 
	C254.861298,184.187195 251.891296,183.431580 248.992065,183.162476 
	C242.623535,183.436050 236.255020,183.709625 229.440979,184.001770 
	C224.585052,179.512939 225.106171,172.125183 230.300903,166.210190 
	C231.379745,164.981750 232.608047,163.884583 233.905762,162.423035 
z"/>
<path fill="#68E7F4" opacity="1.000000" stroke="none" 
	d="
M288.420776,215.122620 
	C287.576538,212.275253 287.032562,209.593979 286.386261,206.408463 
	C296.290680,206.408463 305.489838,206.408463 315.528473,206.408463 
	C314.981018,209.167648 314.488586,211.649490 313.931915,214.541656 
	C307.073944,224.665466 294.730988,224.830750 288.420776,215.122620 
z"/>
<path fill="#1A3D50" opacity="1.000000" stroke="none" 
	d="
M374.250061,182.879364 
	C374.191132,182.724625 374.377472,182.481949 374.810089,182.152374 
	C374.865234,182.304535 374.678223,182.546509 374.250061,182.879364 
z"/>
<path fill="#1D4258" opacity="1.000000" stroke="none" 
	d="
M249.000732,183.534637 
	C251.891296,183.431580 254.861298,184.187195 257.662140,183.779831 
	C259.239380,183.550415 261.575989,181.552612 261.785919,180.094498 
	C262.817596,172.929260 260.625275,166.842590 254.101135,162.431213 
	C260.579773,156.507095 267.126282,160.335114 273.581512,162.450211 
	C278.293732,163.994156 282.532104,164.350693 287.260895,161.900970 
	C289.792603,160.589401 293.391479,161.420410 296.490753,161.106400 
	C305.645874,160.178894 314.540894,160.961853 323.234406,164.251465 
	C324.850983,164.863159 327.308685,164.529022 328.900146,163.706451 
	C335.398285,160.347839 341.870575,157.774200 349.596313,160.987488 
	C344.718170,164.134323 340.954468,168.149384 339.799988,174.626572 
	C338.295319,183.068573 342.356201,184.760605 348.402222,183.934158 
	C350.001282,183.715546 351.576721,183.323654 353.585022,183.081818 
	C353.061523,188.076004 347.211945,192.397232 342.437164,191.590988 
	C339.336243,191.067368 335.878082,191.059464 333.257599,189.602112 
	C326.447601,185.814804 320.463013,189.258118 313.935028,190.240860 
	C305.851654,191.457703 297.326447,191.410339 289.214783,190.292938 
	C281.289246,189.201141 273.819397,188.097717 266.140839,191.366974 
	C260.415558,193.804626 255.521301,190.473862 250.846008,187.686783 
	C249.840149,187.087143 249.601471,185.200562 249.000732,183.534637 
z"/>
</svg>